<mxfile host="app.diagrams.net" modified="2021-08-31T13:53:45.332Z" agent="5.0 (Windows NT 10.0; Win64; x64) AppleWebKit/537.36 (KHTML, like Gecko) Chrome/92.0.4515.159 Safari/537.36" etag="CcyIZQ1_mXUWFdBYnaA1" version="15.0.3" type="github">
  <diagram name="Page-1" id="e3a06f82-3646-2815-327d-82caf3d4e204">
    <mxGraphModel dx="1221" dy="681" grid="1" gridSize="10" guides="1" tooltips="1" connect="1" arrows="1" fold="1" page="1" pageScale="1.5" pageWidth="1169" pageHeight="826" background="none" math="0" shadow="0">
      <root>
        <mxCell id="0" style=";html=1;" />
        <mxCell id="1" style=";html=1;" parent="0" />
        <mxCell id="6a7d8f32e03d9370-60" value="&lt;b&gt;Контроллер Домена (DC)&lt;br&gt;192.168.0.122&lt;/b&gt;" style="whiteSpace=wrap;html=1;fillColor=#d5e8d4;fontSize=14;strokeColor=none;verticalAlign=top;" parent="1" vertex="1">
          <mxGeometry x="705.25" y="258.5" width="334.75" height="317.5" as="geometry" />
        </mxCell>
        <mxCell id="6a7d8f32e03d9370-58" value="&lt;b&gt;Атакующий (А)&amp;nbsp;&lt;br&gt;192.168.0.124&lt;/b&gt;" style="whiteSpace=wrap;html=1;fillColor=#dae8fc;fontSize=14;strokeColor=none;verticalAlign=top;" parent="1" vertex="1">
          <mxGeometry x="240" y="443" width="320" height="318" as="geometry" />
        </mxCell>
        <mxCell id="6a7d8f32e03d9370-57" value="&lt;b&gt;Службы сертификации Active Directory (AD CS)&lt;/b&gt;&lt;br&gt;&lt;b&gt;192.168.0.113&lt;/b&gt;" style="whiteSpace=wrap;html=1;fillColor=#FFD470;gradientColor=none;fontSize=14;strokeColor=none;verticalAlign=top;" parent="1" vertex="1">
          <mxGeometry x="705.25" y="620" width="334.75" height="317.5" as="geometry" />
        </mxCell>
        <mxCell id="EnzormskuyvmOyzlaEz_-3" value="" style="verticalLabelPosition=bottom;aspect=fixed;html=1;verticalAlign=top;strokeColor=none;align=center;outlineConnect=0;shape=mxgraph.citrix.desktop_web;" vertex="1" parent="1">
          <mxGeometry x="800" y="698.75" width="136" height="160" as="geometry" />
        </mxCell>
        <mxCell id="EnzormskuyvmOyzlaEz_-4" value="" style="verticalLabelPosition=bottom;aspect=fixed;html=1;verticalAlign=top;strokeColor=none;align=center;outlineConnect=0;shape=mxgraph.citrix.tower_server;" vertex="1" parent="1">
          <mxGeometry x="809.69" y="341" width="116.62" height="152.5" as="geometry" />
        </mxCell>
        <mxCell id="EnzormskuyvmOyzlaEz_-9" value="" style="verticalLabelPosition=bottom;aspect=fixed;html=1;verticalAlign=top;strokeColor=none;align=center;outlineConnect=0;shape=mxgraph.citrix.laptop_1;" vertex="1" parent="1">
          <mxGeometry x="320" y="539" width="141.82" height="120" as="geometry" />
        </mxCell>
        <mxCell id="EnzormskuyvmOyzlaEz_-10" value="" style="endArrow=classic;html=1;strokeWidth=5;" edge="1" parent="1">
          <mxGeometry width="50" height="50" relative="1" as="geometry">
            <mxPoint x="498" y="568" as="sourcePoint" />
            <mxPoint x="807.69" y="397.3759578804347" as="targetPoint" />
            <Array as="points">
              <mxPoint x="460" y="590" />
            </Array>
          </mxGeometry>
        </mxCell>
        <mxCell id="EnzormskuyvmOyzlaEz_-11" value="&lt;b&gt;&lt;font style=&quot;font-size: 16px&quot;&gt;NTLM аутентификация от А к DC&lt;/font&gt;&lt;/b&gt;" style="text;html=1;strokeColor=none;fillColor=none;align=center;verticalAlign=middle;whiteSpace=wrap;rounded=0;rotation=-30;" vertex="1" parent="1">
          <mxGeometry x="515.25" y="459" width="190" height="20" as="geometry" />
        </mxCell>
        <mxCell id="EnzormskuyvmOyzlaEz_-14" value="" style="endArrow=classic;html=1;strokeWidth=5;" edge="1" parent="1">
          <mxGeometry width="50" height="50" relative="1" as="geometry">
            <mxPoint x="805.69" y="428.3759578804347" as="sourcePoint" />
            <mxPoint x="496" y="599" as="targetPoint" />
            <Array as="points">
              <mxPoint x="496" y="599" />
            </Array>
          </mxGeometry>
        </mxCell>
        <mxCell id="EnzormskuyvmOyzlaEz_-15" value="&lt;b&gt;&lt;font style=&quot;font-size: 16px&quot;&gt;NTLM аутентификация от DC к А&lt;/font&gt;&lt;/b&gt;" style="text;html=1;strokeColor=none;fillColor=none;align=center;verticalAlign=middle;whiteSpace=wrap;rounded=0;rotation=-30;" vertex="1" parent="1">
          <mxGeometry x="570" y="530" width="190" height="20" as="geometry" />
        </mxCell>
        <mxCell id="EnzormskuyvmOyzlaEz_-16" value="" style="endArrow=classic;html=1;strokeWidth=5;" edge="1" parent="1">
          <mxGeometry width="50" height="50" relative="1" as="geometry">
            <mxPoint x="462.82" y="617.62" as="sourcePoint" />
            <mxPoint x="800.9999999999995" y="725.1318996504012" as="targetPoint" />
            <Array as="points">
              <mxPoint x="462.82" y="617.62" />
            </Array>
          </mxGeometry>
        </mxCell>
        <mxCell id="EnzormskuyvmOyzlaEz_-17" value="&lt;b&gt;&lt;font style=&quot;font-size: 16px&quot;&gt;А ретранслирует NTLM данные (от DC) к AD CS&amp;nbsp;&lt;/font&gt;&lt;/b&gt;" style="text;html=1;strokeColor=none;fillColor=none;align=center;verticalAlign=middle;whiteSpace=wrap;rounded=0;rotation=18;" vertex="1" parent="1">
          <mxGeometry x="526.18" y="626.52" width="193.75" height="20" as="geometry" />
        </mxCell>
        <mxCell id="EnzormskuyvmOyzlaEz_-18" value="" style="endArrow=classic;html=1;strokeWidth=5;" edge="1" parent="1">
          <mxGeometry width="50" height="50" relative="1" as="geometry">
            <mxPoint x="751.79" y="745.9" as="sourcePoint" />
            <mxPoint x="450" y="650" as="targetPoint" />
            <Array as="points">
              <mxPoint x="800" y="760" />
              <mxPoint x="751.79" y="745.9" />
            </Array>
          </mxGeometry>
        </mxCell>
        <mxCell id="EnzormskuyvmOyzlaEz_-19" value="&lt;b&gt;&lt;font style=&quot;font-size: 16px&quot;&gt;А получает сертификат&lt;/font&gt;&lt;/b&gt;" style="text;html=1;strokeColor=none;fillColor=none;align=center;verticalAlign=middle;whiteSpace=wrap;rounded=0;rotation=17;strokeWidth=1;" vertex="1" parent="1">
          <mxGeometry x="511.5" y="720" width="193.75" height="20" as="geometry" />
        </mxCell>
      </root>
    </mxGraphModel>
  </diagram>
</mxfile>
